Coordinates
version=1
nRows=8
nColumns=40
inDegrees=yes

Units are S.I. units (second, meters, Newtons, ...)
If the header above contains a line with 'inDegrees', this indicates whether rotational values are in degrees (yes) or radians (no).

endheader
time	pelvis_tilt	pelvis_list	pelvis_rotation	pelvis_tx	pelvis_ty	pelvis_tz	hip_flexion_r	hip_adduction_r	hip_rotation_r	knee_angle_r	knee_angle_r_beta	ankle_angle_r	subtalar_angle_r	mtp_angle_r	hip_flexion_l	hip_adduction_l	hip_rotation_l	knee_angle_l	knee_angle_l_beta	ankle_angle_l	subtalar_angle_l	mtp_angle_l	lumbar_extension	lumbar_bending	lumbar_rotation	arm_flex_r	arm_add_r	arm_rot_r	elbow_flex_r	pro_sup_r	wrist_flex_r	wrist_dev_r	arm_flex_l	arm_add_l	arm_rot_l	elbow_flex_l	pro_sup_l	wrist_flex_l	wrist_dev_l
      3.02500000	    -29.27187533	      2.22586790	      6.71220374	     -0.37636626	      0.85299471	     -0.73975362	     63.12200025	     -4.07532168	     -7.42010117	     60.19545369	      1.05060886	     13.54164502	      0.00000000	      0.00000000	     33.16162577	     -4.27207946	      6.27205343	     84.42288184	      1.47345725	     -9.32310784	      0.00000000	      0.00000000	     -1.91607238	      0.16281804	     -6.72608506	     89.93451547	     -7.10368944	     14.43053266	     44.13005333	     72.54913014	      0.00000000	      0.00000000	     89.88407956	     -8.86330300	     19.02484337	     39.85145682	     77.38509742	      0.00000000	      0.00000000
      3.03000000	    -29.33871229	      2.22009086	      6.71795302	     -0.37662518	      0.85219802	     -0.73969156	     63.30351766	     -4.07718346	     -7.39372457	     60.38370858	      1.05389453	     13.60594699	      0.00000000	      0.00000000	     33.22008987	     -4.27202934	      6.25856370	     84.40254301	      1.47310227	     -9.23694956	      0.00000000	      0.00000000	     -1.92292853	      0.17029777	     -6.77789324	     89.93494720	     -7.06354556	     13.99680978	     44.31791568	     75.18773052	      0.00000000	      0.00000000	     89.88505346	     -8.96146128	     18.66412613	     39.91968078	     80.15645463	      0.00000000	      0.00000000
      3.03500000	    -29.39601227	      2.25295350	      6.72379309	     -0.37684946	      0.85137368	     -0.73960551	     63.48017099	     -4.11712869	     -7.37047119	     60.57455571	      1.05722544	     13.64374091	      0.00000000	      0.00000000	     33.26308890	     -4.23645347	      6.23821826	     84.39221124	      1.47292195	     -9.18738795	      0.00000000	      0.00000000	     -1.93512447	      0.13396340	     -6.78494928	     89.93536424	     -7.00280255	     13.89295838	     44.15663199	     75.13445959	      0.00000000	      0.00000000	     89.88605902	     -8.97021228	     18.58866588	     39.99530545	     79.97419887	      0.00000000	      0.00000000
      3.04000000	    -29.49250422	      2.24848998	      6.73824875	     -0.37689076	      0.85047806	     -0.73951839	     63.68410601	     -4.14773883	     -7.40548544	     60.80446198	      1.06123806	     13.77991153	      0.00000000	      0.00000000	     33.33059448	     -4.27642967	      6.18208931	     84.36032035	      1.47236535	     -9.10847322	      0.00000000	      0.00000000	     -1.87970708	      0.11906911	     -6.79604136	     89.93537620	     -7.04756278	     13.77065817	     44.33230948	     75.44443513	      0.00000000	      0.00000000	     89.88650025	     -8.93780178	     18.46645474	     40.04498577	     79.94188742	      0.00000000	      0.00000000
      3.04500000	    -29.56890802	      2.29185761	      6.73852986	     -0.37693389	      0.84954949	     -0.73945020	     63.87581679	     -4.20191436	     -7.40650632	     61.03281605	      1.06522359	     13.89751264	      0.00000000	      0.00000000	     33.37409631	     -4.20097921	      6.17298680	     84.34474568	      1.47209352	     -9.16092053	      0.00000000	      0.00000000	     -1.85511122	      0.05944261	     -6.78961042	     89.93572359	     -7.05875040	     14.07784184	     44.27780767	     72.79296093	      0.00000000	      0.00000000	     89.88738603	     -8.88346003	     18.53454420	     40.10901316	     77.32915139	      0.00000000	      0.00000000
      3.05000000	    -29.68853623	      2.27192479	      6.75175177	     -0.37715379	      0.84865703	     -0.73934789	     64.11128009	     -4.21352068	     -7.41891950	     61.22108341	      1.06850948	     13.95774410	      0.00000000	      0.00000000	     33.49818735	     -4.22693589	      6.15067688	     84.33405492	      1.47190693	     -9.06281420	      0.00000000	      0.00000000	     -1.78770723	      0.07597351	     -6.80952635	     89.93594286	     -6.99713191	     13.60203671	     44.39817307	     75.10429802	      0.00000000	      0.00000000	     89.88799553	     -8.92962764	     18.17312705	     40.15992255	     80.09265854	      0.00000000	      0.00000000
      3.05500000	    -29.77050964	      2.28404674	      6.77334305	     -0.37743126	      0.84775452	     -0.73927451	     64.32189581	     -4.26350902	     -7.43695215	     61.44107482	      1.07234905	     14.03256917	      0.00000000	      0.00000000	     33.58866161	     -4.21927796	      6.13910940	     84.34613563	      1.47211778	     -9.00633347	      0.00000000	      0.00000000	     -1.76165655	      0.05032177	     -6.85530038	     89.93632017	     -7.03305989	     14.25843001	     44.63110064	     69.55990364	      0.00000000	      0.00000000	     89.88974239	     -9.02849567	     18.85514311	     40.42266055	     74.59263977	      0.00000000	      0.00000000
      3.06000000	    -29.82489665	      2.35012289	      6.80822821	     -0.37746876	      0.84699474	     -0.73931669	     64.47136770	     -4.36168208	     -7.42920421	     61.65174989	      1.07602603	     14.14235780	      0.00000000	      0.00000000	     33.58071413	     -4.11817521	      6.12874877	     84.30810969	      1.47145410	     -8.91535447	      0.00000000	      0.00000000	     -1.75750039	     -0.01090473	     -6.94254310	     89.93670218	     -6.87597122	     14.25534508	     44.61286435	     67.13080389	      0.00000000	      0.00000000	     89.88987277	     -8.86332370	     18.41105762	     40.30858016	     72.10452514	      0.00000000	      0.00000000
